LG_Sit_Stand_Walk02																		
version=1																		
nRows=44																		
nColumns=19																		
inDegrees=yes																		
endheader																		
time	ground_force2_vx	ground_force2_vy	ground_force2_vz	ground_force2_px	ground_force2_py	ground_force2_pz	ground_torque2_x	ground_torque2_y	ground_torque2_z	ground_force1_vx	ground_force1_vy	ground_force1_vz	ground_force1_px	ground_force1_py	ground_force1_pz	ground_torque1_x	ground_torque1_y	ground_torque1_z
4.78	-50.945606	738.377808	58.606812	0.199698	0	-0.356368	2.00E-05	-1.049919	0.00E+00	0	0	0	-0.13	0	0.305	0	0	0
4.781	-51.881981	741.657593	58.920532	0.199698	0	-0.356368	2.00E-05	-0.988923	5.00E-06	0	0	0	-0.13	0	0.305	0	0	0
4.782	-52.038406	745.442261	59.390396	0.19966	0	-0.35629	1.00E-05	-0.988923	1.00E-05	0	0	0	-0.13	0	0.305	0	0	0
4.783	-52.268349	745.960693	59.625587	0.19966	0	-0.35629	8.00E-06	-1.062303	1.00E-05	0	0	0	-0.13	0	0.305	0	0	0
4.784	-52.504791	747.685608	60.252029	0.199622	0	-0.356404	8.00E-06	-1.062303	1.00E-05	0	0	0	-0.13	0	0.305	0	0	0
4.785	-52.742668	750.078979	60.643929	0.19966	0	-0.356681	1.30E-05	-0.978295	8.00E-06	0	0	0	-0.13	0	0.305	0	0	0
4.786	-52.974781	752.148071	61.035736	0.199628	0	-0.356883	2.40E-05	-0.917437	7.00E-06	0	0	0	-0.13	0	0.305	0	0	0
4.787	-53.521179	754.904785	61.34898	0.199628	0	-0.356883	1.30E-05	-0.963165	7.00E-06	0	0	0	-0.13	0	0.305	0	0	0
4.788	-53.679047	756.612793	62.132771	0.199479	0	-0.356883	5.00E-06	-0.963165	9.00E-06	0	0	0	-0.13	0	0.305	0	0	0
4.789	-54.225449	757.641907	62.132771	0.199472	0	-0.356961	5.00E-06	-0.963165	9.00E-06	0	0	0	-0.13	0	0.305	0	0	0
4.79	-54.382591	760.5672	62.524502	0.199472	0	-0.357017	1.40E-05	-0.804148	8.00E-06	0	0	0	-0.13	0	0.305	0	0	0
4.791	-54.696159	761.430786	63.151188	0.199472	0	-0.35706	1.60E-05	-0.804148	5.00E-06	0	0	0	-0.13	0	0.305	0	0	0
4.792	-55.47467	762.812073	63.307648	0.199299	0	-0.35706	1.60E-05	-0.79919	6.00E-06	0	0	0	-0.13	0	0.305	0	0	0
4.793	-56.569633	764.015137	63.386215	0.199339	0	-0.357484	1.00E-05	-0.831632	6.00E-06	0	0	0	-0.13	0	0.305	0	0	0
4.794	-56.569633	765.906311	64.4048	0.199299	0	-0.357484	1.00E-05	-0.831632	8.00E-06	0	0	0	-0.13	0	0.305	0	0	0
4.795	-56.569633	768.66272	64.796371	0.199339	0	-0.357281	1.10E-05	-0.831632	8.00E-06	0	0	0	-0.13	0	0.305	0	0	0
4.796	-57.819576	770.718994	65.344841	0.199289	0	-0.357281	1.10E-05	-0.766331	1.10E-05	0	0	0	-0.13	0	0.305	0	0	0
4.797	-57.895264	771.428711	65.344925	0.199425	0	-0.357281	4.00E-06	-0.766331	7.00E-06	0	0	0	-0.13	0	0.305	0	0	0
4.798	-58.05241	772.784912	66.363342	0.199043	0	-0.357777	4.00E-06	-0.811956	1.10E-05	0	0	0	-0.13	0	0.305	0	0	0
4.799	-58.05241	773.837585	66.520203	0.199126	0	-0.357756	1.60E-05	-0.811956	6.00E-06	0	0	0	-0.13	0	0.305	0	0	0
4.8	-58.445992	774.507202	66.833725	0.199126	0	-0.357905	1.80E-05	-0.749885	4.00E-06	0	0	0	-0.13	0	0.305	0	0	0
4.801	-58.758118	776.403687	67.068558	0.199126	0	-0.357973	1.80E-05	-0.675735	4.00E-06	0	0	0	-0.13	0	0.305	0	0	0
4.802	-58.91671	776.747437	67.617233	0.199088	0	-0.357973	1.40E-05	-0.645772	7.00E-06	0	0	0	-0.13	0	0.305	0	0	0
4.803	-59.070969	777.948608	67.852386	0.199088	0	-0.3577	5.00E-06	-0.645772	7.00E-06	0	0	0	-0.13	0	0.305	0	0	0
4.804	-59.152428	780.720764	68.870842	0.199088	0	-0.3577	5.00E-06	-0.645772	7.00E-06	0	0	0	-0.13	0	0.305	0	0	0
4.805	-59.542404	780.720764	69.106033	0.199219	0	-0.357893	8.00E-06	-0.637458	7.00E-06	0	0	0	-0.13	0	0.305	0	0	0
4.806	-60.090244	781.206787	69.497772	0.199219	0	-0.357893	1.20E-05	-0.637458	8.00E-06	0	0	0	-0.13	0	0.305	0	0	0
4.807	-60.40237	783.971191	69.732758	0.199219	0	-0.357893	1.00E-05	-0.627585	8.00E-06	0	0	0	-0.13	0	0.305	0	0	0
4.808	-60.480942	783.971191	69.732841	0.199133	0	-0.357634	1.00E-05	-0.590874	8.00E-06	0	0	0	-0.13	0	0.305	0	0	0
4.809	-61.109524	783.971191	70.516388	0.199133	0	-0.357668	6.00E-06	-0.519903	2.00E-06	0	0	0	-0.13	0	0.305	0	0	0
4.81	-62.045177	786.905396	71.064743	0.199187	0	-0.357668	6.00E-06	-0.510078	9.00E-06	0	0	0	-0.13	0	0.305	0	0	0
4.811	-62.515892	786.905396	71.064941	0.199187	0	-0.357668	1.30E-05	-0.500299	9.00E-06	0	0	0	-0.13	0	0.305	0	0	0
4.812	-63.298008	786.905396	72.318512	0.19921	0	-0.357663	1.30E-05	-0.442748	1.30E-05	0	0	0	-0.13	0	0.305	0	0	0
4.813	-64.000832	789.651306	72.631836	0.198872	0	-0.357663	1.30E-05	-0.439732	1.30E-05	0	0	0	-0.13	0	0.305	0	0	0
4.814	-64.082291	789.651306	73.101982	0.199027	0	-0.357663	7.00E-06	-0.329464	1.30E-05	0	0	0	-0.13	0	0.305	0	0	0
4.815	-64.707985	789.651306	73.180435	0.199027	0	-0.357462	1.10E-05	-0.329464	1.50E-05	0	0	0	-0.13	0	0.305	0	0	0
4.816	-64.707985	791.044556	73.963737	0.199048	0	-0.357462	1.10E-05	-0.329464	1.30E-05	0	0	0	-0.13	0	0.305	0	0	0
4.817	-64.395142	792.768433	73.963737	0.199122	0	-0.357462	1.40E-05	-0.350394	1.30E-05	0	0	0	-0.13	0	0.305	0	0	0
4.818	-64.393692	793.626587	73.807198	0.199106	0	-0.357486	2.00E-05	-0.338233	7.00E-06	0	0	0	-0.13	0	0.305	0	0	0
4.819	-64.393692	793.626587	73.807198	0.199106	0	-0.357791	2.00E-05	-0.352562	7.00E-06	0	0	0	-0.13	0	0.305	0	0	0
4.82	-64.553009	793.617676	73.96402	0.199106	0	-0.357791	1.80E-05	-0.338233	1.30E-05	0	0	0	-0.13	0	0.305	0	0	0
4.821	-64.940819	793.617676	74.512413	0.199184	0	-0.357767	5.00E-06	-0.313282	1.30E-05	0	0	0	-0.13	0	0.305	0	0	0
4.822	-64.632301	792.932312	74.434204	0.199184	0	-0.357767	5.00E-06	-0.299602	1.20E-05	0	0	0	-0.13	0	0.305	0	0	0
4.823	-65.022995	793.09668	74.434204	0.19912	0	-0.357787	5.00E-06	-0.287118	6.00E-06	0	0	0	-0.13	0	0.305	0	0	0
